HIERARCHY
ROOT SpineBase
{
  OFFSET 0.000000 0.000000 0.000000
  CHANNELS 6 Xposition Yposition Zposition Zrotation Xrotation Yrotation
  JOINT SpineMid
  {
    OFFSET 0.000000 31.834713 0.000000
    CHANNELS 3 Zrotation Xrotation Yrotation
    JOINT SpineShoulder
    {
      OFFSET -0.062804 23.751266 -0.837923
      CHANNELS 3 Zrotation Xrotation Yrotation
      JOINT Neck
      {
        OFFSET -0.045456 7.886715 -0.617750
        CHANNELS 3 Zrotation Xrotation Yrotation
        JOINT Head
        {
          OFFSET 7.174234 10.009587 3.297047
          CHANNELS 3 Zrotation Xrotation Yrotation
          End Site
          {
            OFFSET 0 0 0
          }
        }
      }
      JOINT ShoulderLeft
      {
        OFFSET -6.645822 -3.843604 -14.354159
        CHANNELS 3 Zrotation Xrotation Yrotation
        JOINT ElbowLeft
        {
          OFFSET -1.769390 -27.635136 -7.109320
          CHANNELS 3 Zrotation Xrotation Yrotation
          JOINT WristLeft
          {
            OFFSET 5.314133 -23.450162 -3.810962
            CHANNELS 3 Zrotation Xrotation Yrotation
            JOINT HandLeft
            {
              OFFSET 1.034163 -7.240219 0.781405
              CHANNELS 3 Zrotation Xrotation Yrotation
              JOINT HandTipLeft
              {
                OFFSET 2.924231 -6.519699 -0.421085
                CHANNELS 3 Zrotation Xrotation Yrotation
                End Site
                {
                  OFFSET 0 0 0
                }
              }
              JOINT ThumbLeft
              {
                OFFSET 0.315432 3.351512 -4.887962
                CHANNELS 3 Zrotation Xrotation Yrotation
                End Site
                {
                  OFFSET 0 0 0
                }
              }
            }
          }
        }
      }
      JOINT ShoulderRight
      {
        OFFSET 13.068201 -5.025608 21.597080
        CHANNELS 3 Zrotation Xrotation Yrotation
        JOINT ElbowRight
        {
          OFFSET -2.191028 -32.622910 -6.111606
          CHANNELS 3 Zrotation Xrotation Yrotation
          JOINT WristRight
          {
            OFFSET 5.356347 -24.303776 0.121136
            CHANNELS 3 Zrotation Xrotation Yrotation
            JOINT HandRight
            {
              OFFSET -3.764962 -7.416097 6.272550
              CHANNELS 3 Zrotation Xrotation Yrotation
              JOINT HandTipRight
              {
                OFFSET -0.498836 -0.580017 -0.743579
                CHANNELS 3 Zrotation Xrotation Yrotation
                End Site
                {
                  OFFSET 0 0 0
                }
              }
              JOINT ThumbRight
              {
                OFFSET -0.640006 -0.155020 -2.224086
                CHANNELS 3 Zrotation Xrotation Yrotation
                End Site
                {
                  OFFSET 0 0 0
                }
              }
            }
          }
        }
      }
    }
  }
  JOINT HipLeft
  {
    OFFSET -3.590545 1.941287 -8.243659
    CHANNELS 3 Zrotation Xrotation Yrotation
    JOINT KneeLeft
    {
      OFFSET -7.039364 -36.829606 0.701005
      CHANNELS 3 Zrotation Xrotation Yrotation
      JOINT AnkleLeft
      {
        OFFSET -7.740901 -31.940138 2.807911
        CHANNELS 3 Zrotation Xrotation Yrotation
        JOINT FootLeft
        {
          OFFSET 5.527618 -5.703534 -3.290417
          CHANNELS 3 Zrotation Xrotation Yrotation
          End Site
          {
            OFFSET 0 0 0
          }
        }
      }
    }
  }
  JOINT HipRight
  {
    OFFSET 2.841737 0.293770 1.058116
    CHANNELS 3 Zrotation Xrotation Yrotation
    JOINT KneeRight
    {
      OFFSET -16.907163 -32.849090 -2.053201
      CHANNELS 3 Zrotation Xrotation Yrotation
      JOINT AnkleRight
      {
        OFFSET -3.431824 -33.155951 -4.442819
        CHANNELS 3 Zrotation Xrotation Yrotation
        JOINT FootRight
        {
          OFFSET 9.098345 -3.673398 -8.101852
          CHANNELS 3 Zrotation Xrotation Yrotation
          End Site
          {
            OFFSET 0 0 0
          }
        }
      }
    }
  }
}
MOTION
Frames: 7
Frame Time: 0.033333
43.830716 76.048115 341.017203 -12.290049 -2.692168 -28.470838 -0.010962 0.115486 27.751299 0.293678 0.064608 -0.512660 25.037246 -5.094866 2.536838 0.000000 0.000000 0.000000 -6.275602 -6.805464 5.417345 4.990258 11.349517 -1.351491 -6.600940 6.232736 -3.148145 9.013941 -15.455876 -2.498601 0.000000 0.000000 0.000000 0.000000 0.000000 0.000000 10.762450 -9.422816 1.680443 -27.857504 -15.344901 -9.013287 66.139536 69.437245 -50.508562 78.432620 -56.503760 106.632002 0.000000 0.000000 0.000000 0.000000 0.000000 0.000000 12.675725 6.865583 27.620679 -3.389719 -0.817367 0.244210 -11.340439 17.272642 22.885126 0.000000 0.000000 0.000000 34.696427 2.834082 32.784171 -48.755606 25.338958 9.606602 -57.125180 -32.964277 -64.337000 0.000000 0.000000 0.000000
45.045502 75.993130 340.391983 -13.058929 -3.659474 -24.534585 0.083171 0.023847 23.642798 0.348767 -0.003628 -0.554738 26.689659 -4.083952 1.928608 0.000000 0.000000 0.000000 -8.230391 -8.093334 6.107599 4.025815 13.600893 -0.834230 -8.752422 7.035750 -4.004363 8.829621 -14.183535 -1.370807 0.000000 0.000000 0.000000 0.000000 0.000000 0.000000 11.841621 -15.407841 2.035724 -26.475665 -3.381964 -3.226802 79.425088 69.363835 -65.653380 91.709465 -51.779061 118.369620 0.000000 0.000000 0.000000 0.000000 0.000000 0.000000 11.761270 6.605869 23.612622 -0.948135 -1.726374 0.491942 -20.824814 4.054341 15.654219 0.000000 0.000000 0.000000 37.754124 2.554887 28.244389 -55.018637 21.944116 11.371111 -49.285890 -24.136675 -78.024925 0.000000 0.000000 0.000000
46.405238 75.862058 339.949133 -13.420906 -4.848793 -19.942759 0.019215 -0.110943 18.871547 0.355887 -0.054571 -0.587745 28.152891 -2.737654 0.996651 0.000000 0.000000 0.000000 -10.606568 -9.210702 6.888601 3.237941 15.669716 -0.235342 -9.626299 4.019231 -6.371063 8.755613 -9.120972 0.838967 0.000000 0.000000 0.000000 0.000000 0.000000 0.000000 13.194320 -20.706634 2.338770 -26.113937 7.409910 1.663186 76.548411 66.874658 -62.189007 98.183158 -46.804816 119.401478 0.000000 0.000000 0.000000 0.000000 0.000000 0.000000 10.148253 6.808589 18.935170 1.700367 -3.039170 0.840701 -29.058922 -4.497090 9.529334 0.000000 0.000000 0.000000 38.101800 1.055215 23.554710 -55.776778 17.561404 10.882866 -32.045432 -23.637947 -69.216251 0.000000 0.000000 0.000000
47.792953 76.275632 339.652398 -14.252755 -5.658515 -17.906600 -0.048749 -0.168030 16.662661 0.385397 -0.034909 -0.628848 30.027109 -2.468640 0.802396 0.000000 0.000000 0.000000 -12.401082 -10.882429 7.471949 1.192106 17.203439 0.807980 -7.007479 5.080794 -6.821517 6.217446 -8.483383 1.609770 0.000000 0.000000 0.000000 0.000000 0.000000 0.000000 13.865754 -23.503023 2.562821 -24.160043 14.762994 3.998871 46.129327 53.027798 -26.291052 82.314964 -54.349310 87.320305 0.000000 0.000000 0.000000 0.000000 0.000000 0.000000 9.221121 7.586017 16.761022 3.452253 -4.383995 1.175696 -30.219975 -4.689791 9.241098 0.000000 0.000000 0.000000 36.481007 2.053415 19.991923 -50.866890 10.627578 7.927955 -36.053360 -21.012715 -63.091877 0.000000 0.000000 0.000000
49.337413 75.488962 339.540959 -13.922215 -7.384352 -15.525453 -0.054159 -0.145121 14.099126 0.422735 -0.019986 -0.620847 29.077697 -0.239317 -0.281371 0.000000 0.000000 0.000000 -16.161405 -11.447946 8.561161 2.231349 18.434629 0.706002 -8.500925 5.824081 -7.342277 8.747185 -8.928935 1.733680 0.000000 0.000000 0.000000 0.000000 0.000000 0.000000 15.919625 -26.124397 2.628356 -26.408598 20.400657 7.224966 23.464600 6.462203 3.420051 40.365491 -45.092982 3.014257 0.000000 0.000000 0.000000 0.000000 0.000000 0.000000 6.259953 9.415789 14.351760 6.146896 -6.572613 1.794899 -30.946607 5.924151 25.059288 0.000000 0.000000 0.000000 36.051841 5.313531 14.395556 -49.390476 1.361249 5.780711 -35.896122 -23.233373 -40.519697 0.000000 0.000000 0.000000
50.814520 73.840635 339.386191 -12.906012 -9.687892 -10.173690 -0.079108 -0.090345 8.592480 0.435575 0.020045 -0.584844 27.520848 3.224042 -2.210382 0.000000 0.000000 0.000000 -20.716066 -11.390498 10.084484 5.673542 19.382606 -0.501660 -17.503243 6.176566 -8.375727 17.446265 -8.025335 2.905075 0.000000 0.000000 0.000000 0.000000 0.000000 0.000000 16.682111 -27.112745 2.524619 -29.226603 23.153518 9.678296 31.371805 12.668638 5.113905 42.203042 -56.704628 2.282827 0.000000 0.000000 0.000000 0.000000 0.000000 0.000000 3.447573 11.926686 9.098309 8.210444 -8.779512 2.413442 -26.213045 13.179126 27.996552 0.000000 0.000000 0.000000 37.095073 6.737421 6.300980 -47.889427 -5.323323 4.378522 -24.940604 -25.851301 1.513266 0.000000 0.000000 0.000000
52.371432 71.444607 338.887285 -11.301511 -12.158615 -3.785761 -0.064169 -0.069773 2.149806 0.434096 0.030306 -0.527917 26.082348 7.044197 -4.590368 0.000000 0.000000 0.000000 -25.266467 -10.772188 11.883166 9.001625 19.413583 -2.044132 -21.834254 -0.764996 -13.379877 19.172509 2.599404 6.852371 0.000000 0.000000 0.000000 0.000000 0.000000 0.000000 17.024117 -27.376665 2.304808 -31.733129 22.430574 10.642220 33.947084 17.377754 4.938175 45.143738 -60.547462 7.089218 0.000000 0.000000 0.000000 0.000000 0.000000 0.000000 1.273158 15.068013 2.956161 8.793004 -11.052260 2.850693 -26.633492 13.385330 29.127018 0.000000 0.000000 0.000000 40.106741 6.972771 -2.864085 -46.608415 -9.941549 3.694561 -13.890021 -16.134912 37.769960 0.000000 0.000000 0.000000
